<!-- Generated by IcoMoon.io -->
<svg version="1.1" xmlns="http://www.w3.org/2000/svg" width="979" height="1024" viewBox="0 0 979 1024">
<title></title>
<g id="icomoon-ignore">
</g>
<path fill="#000" d="M534.261 681.565c0 24.589-19.932 44.522-44.522 44.522s-44.522-19.932-44.522-44.522c0-24.589 19.932-44.522 44.522-44.522s44.522 19.932 44.522 44.522z"></path>
<path fill="#000" d="M523.13 280.869c0-18.441-14.95-33.391-33.391-33.391s-33.391 14.95-33.391 33.391v267.131c0 18.441 14.95 33.391 33.391 33.391s33.391-14.95 33.391-33.391v-267.131z"></path>
<path fill="#000" d="M489.739 24.87c-264.328 0-478.609 214.28-478.609 478.609s214.28 478.609 478.609 478.609c264.33 0 478.609-214.279 478.609-478.609s-214.279-478.609-478.609-478.609zM77.913 503.479c0-227.446 184.381-411.827 411.826-411.827 227.444 0 411.826 184.381 411.826 411.827 0 227.444-184.382 411.826-411.826 411.826-227.445 0-411.826-184.382-411.826-411.826z"></path>
</svg>
