<!-- Generated by IcoMoon.io -->
<svg version="1.1" xmlns="http://www.w3.org/2000/svg" width="887" height="1024" viewBox="0 0 887 1024">
<title></title>
<g id="icomoon-ignore">
</g>
<path fill="#000" d="M272.933 602.971c0-18.842 15.274-34.114 34.114-34.114h272.919c18.842 0 34.114 15.273 34.114 34.114s-15.273 34.114-34.114 34.114h-272.919c-18.841 0-34.114-15.273-34.114-34.114z"></path>
<path fill="#000" d="M307.049 23.019c18.841 0 34.114 15.274 34.114 34.114v57.341c30.44-0.483 64.265-0.483 101.843-0.483h1.003c37.577 0 71.402 0 101.843 0.483v-57.341c0-18.841 15.273-34.114 34.114-34.114s34.114 15.274 34.114 34.114v59.75c68.772 4.312 121.606 15.454 165.106 47.060 22.202 16.132 41.729 35.658 57.863 57.863 36.472 50.202 45.697 112.836 48.614 198.051 1.337 38.992 1.337 84.359 1.337 137.127v0.999c0 52.769 0 98.135-1.337 137.127-2.916 85.216-12.141 147.85-48.614 198.050-16.133 22.205-35.66 41.732-57.863 57.866-50.204 36.472-112.835 45.693-198.053 48.614-38.992 1.337-84.362 1.337-137.134 1.337h-2.552c-83.537 0-149.018 0-200.969-5.629-53.017-5.745-95.973-17.674-132.65-44.321-22.204-16.133-41.73-35.66-57.863-57.866-26.647-36.677-38.579-79.631-44.322-132.649-5.629-51.95-5.628-117.433-5.628-200.97v-2.562c0-52.766 0-98.132 1.336-137.124 2.919-85.216 12.141-147.85 48.615-198.051 16.132-22.204 35.658-41.73 57.863-57.863 43.499-31.604 96.334-42.747 165.106-47.060v-59.75c0-18.841 15.274-34.114 34.114-34.114zM272.933 185.279c-61.956 4.261-97.715 14.037-125.001 33.861-16.412 11.923-30.844 26.355-42.767 42.767-19.824 27.286-29.601 63.046-33.861 125.002h744.407c-4.261-61.957-14.034-97.716-33.858-125.002-11.926-16.412-26.356-30.844-42.769-42.767-27.285-19.824-63.044-29.601-125-33.861v8.312c0 18.841-15.273 34.114-34.114 34.114s-34.114-15.274-34.114-34.114v-10.881c-30-0.489-63.792-0.491-102.344-0.491s-72.344 0.002-102.344 0.491v10.881c0 18.841-15.274 34.114-34.114 34.114s-34.114-15.274-34.114-34.114v-8.312zM818.279 455.14h-749.544c-0.488 30-0.491 63.792-0.491 102.344 0 86.041 0.047 147.83 5.231 195.679 5.115 47.212 14.901 76.786 31.688 99.895 11.923 16.409 26.355 30.843 42.767 42.766 23.107 16.788 52.684 26.575 99.895 31.688 47.85 5.185 109.639 5.233 195.681 5.233 38.587 0 72.406-0.003 102.426-0.495 0.201-21.588 0.874-37.481 3.138-51.793 17.726-111.913 105.497-199.688 217.41-217.414 14.311-2.265 30.205-2.937 51.797-3.135 0.488-30.024 0.492-63.84 0.492-102.426 0-38.553-0.003-72.344-0.492-102.344zM815.703 728.185c-18.419 0.212-29.219 0.775-38.546 2.252-82.718 13.104-147.594 77.977-160.695 160.698-1.477 9.324-2.040 20.124-2.255 38.543 61.878-4.265 97.606-14.041 124.874-33.852 16.413-11.923 30.843-26.356 42.769-42.766 19.81-27.268 29.584-62.997 33.852-124.874z"></path>
</svg>
