<!-- Generated by IcoMoon.io -->
<svg version="1.1" xmlns="http://www.w3.org/2000/svg" width="983" height="1024" viewBox="0 0 983 1024">
<title></title>
<g id="icomoon-ignore">
</g>
<path fill="#000" d="M491.492 351.978c-119.939 0-217.17 97.229-217.17 217.17 0 119.937 97.231 217.17 217.17 217.17 119.941 0 217.17-97.233 217.17-217.17 0-119.941-97.229-217.17-217.17-217.17zM342.902 569.148c0-82.063 66.527-148.59 148.59-148.59s148.59 66.527 148.59 148.59c0 82.063-66.527 148.59-148.59 148.59s-148.59-66.527-148.59-148.59z"></path>
<path fill="#000" d="M365.762 9.078c-63.126 0-114.3 51.174-114.3 114.3v8.165c0 20.741-16.815 37.555-37.556 37.555-118.136 0-213.904 95.769-213.904 213.905v210.803c0 73.307 0 130.778 4.364 176.69 4.449 46.795 13.675 85.112 34.375 118.894 21.677 35.374 51.417 65.114 86.791 86.79 33.779 20.698 72.097 29.923 118.894 34.373 45.911 4.367 103.378 4.367 176.685 4.367h140.763c73.303 0 130.773 0 176.685-4.367 46.795-4.448 85.112-13.675 118.894-34.373 35.374-21.676 65.114-51.417 86.79-86.79 20.698-33.782 29.923-72.101 34.373-118.894 4.367-45.912 4.367-103.378 4.367-176.685v-210.808c0-118.136-95.77-213.905-213.905-213.905-20.738 0-37.555-16.813-37.555-37.555v-8.165c0-63.126-51.175-114.3-114.3-114.3h-251.46zM320.042 123.378c0-25.25 20.47-45.72 45.72-45.72h251.46c25.251 0 45.72 20.47 45.72 45.72v8.165c0 58.617 47.517 106.135 106.135 106.135 80.261 0 145.325 65.064 145.325 145.325v209.006c0 75.493-0.037 129.708-4.055 171.994-3.973 41.779-11.59 68.36-24.579 89.551-16.020 26.147-38.003 48.13-64.15 64.15-21.191 12.989-47.773 20.606-89.551 24.579-42.287 4.018-96.501 4.055-171.994 4.055h-137.16c-75.495 0-129.708-0.037-171.995-4.055-41.776-3.973-68.36-11.59-89.553-24.579-26.145-16.020-48.128-38.003-64.15-64.15-12.987-21.191-20.604-47.773-24.577-89.551-4.021-42.287-4.056-96.501-4.056-171.994v-209.006c0-80.26 65.064-145.325 145.324-145.325 58.617 0 106.136-47.518 106.136-106.135v-8.165z"></path>
<path fill="#000" d="M720.092 386.268c0 25.251 20.469 45.72 45.72 45.72s45.72-20.469 45.72-45.72c0-25.25-20.469-45.72-45.72-45.72s-45.72 20.47-45.72 45.72z"></path>
</svg>
