<!-- Generated by IcoMoon.io -->
<svg version="1.1" xmlns="http://www.w3.org/2000/svg" width="1152" height="1024" viewBox="0 0 1152 1024">
<title></title>
<g id="icomoon-ignore">
</g>
<path d="M855.006 0.347c-39.344-3.989-66.934 28.348-66.934 61.106v913.597c0 27.030 21.913 48.943 48.943 48.943s48.943-21.913 48.943-48.943v-857.251c0.927 0.723 1.873 1.472 2.839 2.247 21.052 16.908 46.085 42.055 83.268 79.572l91.216 92.037c19.029 19.199 50.020 19.336 69.218 0.309s19.335-50.016 0.307-69.215l-93.206-94.044c-34.678-34.99-63.599-64.172-89.506-84.979-27.18-21.823-55.736-38.423-90.531-42.859-1.52-0.194-3.034-0.367-4.555-0.521z"></path>
<path d="M363.901 61.454c0-27.031-21.913-48.943-48.943-48.943s-48.943 21.912-48.943 48.943v844.182c-0.928-0.718-1.874-1.468-2.84-2.245-21.054-16.908-46.082-42.058-83.265-79.575l-91.219-92.032c-19.028-19.199-50.016-19.335-69.214-0.313-19.199 19.029-19.336 50.020-0.309 69.218l93.208 94.041c34.677 34.991 63.599 64.174 89.507 84.978 27.175 21.828 55.734 38.423 90.529 42.861 42.458 5.41 71.489-29.796 71.489-63.919v-897.197z"></path>
</svg>
