<!-- Generated by IcoMoon.io -->
<svg version="1.1" xmlns="http://www.w3.org/2000/svg" width="1024" height="1024" viewBox="0 0 1024 1024">
<title></title>
<g id="icomoon-ignore">
</g>
<path d="M1009.47 84.598c19.343-19.349 19.343-50.72 0-70.070-19.35-19.349-50.723-19.349-70.073 0l-427.403 427.403-427.403-427.402c-19.349-19.349-50.72-19.349-70.070 0s-19.349 50.72 0 70.070l427.403 427.403-427.401 427.403c-19.349 19.35-19.349 50.716 0 70.065s50.72 19.35 70.070 0l427.401-427.399 427.403 427.399c19.35 19.35 50.716 19.35 70.065 0s19.35-50.716 0-70.065l-427.399-427.403 427.406-427.403z"></path>
</svg>
