<!-- Generated by IcoMoon.io -->
<svg version="1.1" xmlns="http://www.w3.org/2000/svg" width="1024" height="1024" viewBox="0 0 1024 1024">
<title></title>
<g id="icomoon-ignore">
</g>
<path fill="#000" d="M694.821 382.54l-131.288 129.46 131.288 129.46c7.132 6.69 11.577 16.174 11.577 26.696s-4.443 20.006-11.556 26.678l-0.019 0.018c-6.608 6.555-15.707 10.607-25.754 10.607-0.074 0-0.149 0-0.223-0.001h0.011c-9.991-0.043-19.028-4.086-25.602-10.608l-131.286-131.286-129.46 131.288c-6.571 6.52-15.609 10.562-25.591 10.605h-0.008c-0.063 0-0.137 0.001-0.211 0.001-10.047 0-19.146-4.051-25.756-10.609l0.002 0.002c-6.572-6.61-10.634-15.722-10.634-25.782s4.063-19.172 10.636-25.785l-0.002 0.002 129.46-131.288-129.46-129.46c-5.466-6.353-8.794-14.682-8.794-23.788 0-20.197 16.373-36.571 36.571-36.571 9.106 0 17.434 3.328 23.836 8.834l-0.048-0.040 129.46 129.46 129.46-129.46c6.759-6.991 16.22-11.331 26.696-11.331 20.498 0 37.113 16.617 37.113 37.113 0 10.021-3.971 19.115-10.427 25.793l0.010-0.010zM874.016 874.048c-92.649 92.64-220.639 149.939-362.012 149.939-282.763 0-511.987-229.224-511.987-511.987s229.224-511.987 511.987-511.987c141.372 0 269.361 57.299 362.012 149.939v0c92.663 92.654 149.976 220.657 149.976 362.048s-57.314 269.394-149.976 362.048v0zM822.452 201.516c-79.361-79.094-188.856-127.997-309.772-127.997-242.368 0-438.846 196.479-438.846 438.846s196.479 438.846 438.846 438.846c120.916 0 230.411-48.903 309.784-128.009l-0.013 0.013c79.737-79.469 129.075-189.398 129.075-310.849s-49.337-231.381-129.062-310.837l-0.013-0.013z"></path>
</svg>
