<!-- Generated by IcoMoon.io -->
<svg version="1.1" xmlns="http://www.w3.org/2000/svg" width="1178" height="1024" viewBox="0 0 1178 1024">
<title></title>
<g id="icomoon-ignore">
</g>
<path d="M892.487 74.331c53.77-0.2 90.71-0.287 118.849 2.274 9.149 0.833 16.792 1.905 23.282 3.201l-567.292 472.741c-15.633 13.029-15.633 34.149 0 47.178s40.98 13.029 56.613 0l567.293-472.742c1.553 5.409 2.84 11.778 3.837 19.399 3.074 23.452 2.968 54.237 2.732 99.043l-0.592 110.403c-0.101 18.424 17.742 33.425 39.85 33.507s40.111-14.786 40.212-33.21l0.597-112.391c0.229-42.332 0.416-76.929-3.208-104.597-3.774-28.77-12.079-54.242-32.43-76.16-4.409-4.744-9.159-9.25-14.235-13.491-5.199-4.348-10.739-8.419-16.573-12.184-26.303-16.962-56.871-23.882-91.394-27.024-33.199-3.021-74.719-2.867-125.516-2.677l-134.867 0.501c-22.113 0.082-39.951 15.085-39.855 33.507 0.101 18.424 18.099 33.292 40.207 33.21l132.487-0.492z"></path>
<path d="M627.642 149.496c-32.324-0.323-67.93-0.323-107.059-0.323h-2.588c-98.022 0-174.861-0.001-235.821 5.503-62.211 5.617-112.616 17.284-155.653 43.341-26.055 15.775-48.967 34.869-67.897 56.581-31.268 35.864-45.269 77.87-52.009 129.711-6.605 50.801-6.604 114.833-6.604 196.52v4.024c0 81.69-0.001 145.718 6.604 196.52 6.741 51.843 20.741 93.849 52.009 129.711 18.93 21.713 41.843 40.805 67.897 56.582 43.038 26.058 93.443 37.725 155.653 43.34 60.96 5.503 137.797 5.503 235.821 5.503h4.836c98.023 0 174.861 0 235.82-5.503 62.214-5.615 112.615-17.283 155.657-43.34 26.052-15.778 48.966-34.87 67.892-56.582 31.272-35.862 45.273-77.869 52.013-129.711 6.602-50.802 6.602-114.831 6.602-196.515v-2.173c0-32.601 0-62.267-0.39-89.203-0.262-18.423-18.399-33.178-40.506-32.957s-39.812 15.335-39.55 33.756c0.385 26.499 0.385 55.791 0.385 88.558 0 84.135-0.053 144.555-6.138 191.348-6.005 46.164-17.485 75.082-37.186 97.681-13.99 16.045-30.925 30.162-50.183 41.819-27.115 16.418-61.819 25.988-117.216 30.99-56.15 5.065-128.654 5.113-229.618 5.113-100.962 0-173.469-0.048-229.616-5.113-55.398-5.001-90.103-14.572-117.218-30.99-19.258-11.657-36.193-25.774-50.185-41.819-19.7-22.599-31.184-51.517-37.185-97.681-6.083-46.794-6.138-107.213-6.138-191.348s0.055-144.557 6.138-191.346c6.002-46.165 17.485-75.086 37.185-97.682 13.992-16.048 30.927-30.161 50.185-41.821 27.115-16.417 61.82-25.986 117.218-30.988 56.148-5.070 128.654-5.115 229.616-5.115 39.321 0 74.468 0.001 106.269 0.318 22.108 0.221 40.245-14.534 40.506-32.957 0.267-18.423-17.437-33.535-39.545-33.756z"></path>
</svg>
