<!-- Generated by IcoMoon.io -->
<svg version="1.1" xmlns="http://www.w3.org/2000/svg" width="2253" height="1024" viewBox="0 0 2253 1024">
<title></title>
<g id="icomoon-ignore">
</g>
<path d="M2108.096 183.979c-93.278-85.754-219.204-137.206-354.454-137.206-135.255 0-261.181 47.165-354.459 137.206l-121.266 111.48c-23.318 21.439-23.318 60.028 0 81.466 13.994 12.863 27.983 17.15 41.977 17.15 18.653 0 32.647-4.287 41.977-17.15l121.261-111.48c149.244-137.206 387.106-137.206 536.351 0 149.249 137.206 149.249 355.879 0 493.084-149.244 137.206-387.106 137.206-536.351 0l-624.969-574.551c-195.886-180.083-513.032-180.083-708.917 0-93.279 85.754-149.245 201.521-149.245 325.865s51.302 240.109 149.245 325.866c97.942 90.042 228.533 137.206 354.459 137.206s256.515-47.164 354.458-137.206l116.602-111.481c13.989-12.862 18.653-25.725 18.653-38.587 0-17.153-4.664-30.015-18.653-38.592-23.324-21.439-65.295-21.439-88.619 0l-116.597 111.481c-69.96 64.317-167.903 102.905-265.844 102.905s-195.884-34.302-265.843-102.905c-149.246-137.206-149.246-355.878 0-493.084 69.959-64.315 167.901-102.905 265.843-102.905s195.885 34.302 265.844 102.905l624.969 574.55c93.278 85.757 219.204 137.206 354.459 137.206 135.25 0 261.181-47.164 354.459-137.206 93.278-85.752 149.244-201.518 149.244-325.862 4.664-124.345-46.642-240.113-144.584-330.154z"></path>
</svg>
