<!-- Generated by IcoMoon.io -->
<svg version="1.1" xmlns="http://www.w3.org/2000/svg" width="918" height="1024" viewBox="0 0 918 1024">
<title></title>
<g id="icomoon-ignore">
</g>
<path d="M679.842 260.017c-35.024-35.718-74.956-47.335-112.596-44.579-35.871 2.626-67.365 18.047-89.481 32.076-10.716 6.797-26.815 6.797-37.531 0-22.116-14.028-53.609-29.449-89.481-32.075-37.639-2.756-77.571 8.861-112.595 44.579-41.175 41.989-53.847 93.914-48.78 145.135 4.96 50.136 26.765 100.037 54.89 143.34 28.269 43.526 64.374 82.638 100.856 111.212 34.944 27.37 76.055 49.634 113.876 49.634s78.931-22.265 113.878-49.634c36.479-28.574 72.583-67.686 100.853-111.212 28.125-43.303 49.931-93.206 54.891-143.34 5.066-51.221-7.605-103.146-48.78-145.135zM515.589 307.142c17.279-10.96 37.291-19.85 56.812-21.279 17.756-1.3 37.107 3.283 57.024 23.593 24.036 24.512 32.312 54.5 28.927 88.743-3.496 35.324-19.549 74.433-43.84 111.83-24.142 37.174-55 70.447-85.177 94.085-31.713 24.838-56.96 34.611-70.334 34.611s-38.622-9.773-70.334-34.611c-30.177-23.637-61.035-56.911-85.178-94.085-24.288-37.397-40.344-76.506-43.839-111.83-3.388-34.244 4.89-64.231 28.927-88.743 19.917-20.311 39.266-24.893 57.022-23.593 19.523 1.429 39.534 10.318 56.813 21.279 33.802 21.444 79.372 21.444 113.179 0z"></path>
<path d="M664.547 30.478c-43.091-3.731-96.821-3.731-165.354-3.731h-80.386c-68.535 0-122.263 0-165.356 3.731-43.895 3.801-80.047 11.672-112.478 29.38-45.544 24.869-82.979 62.304-107.848 107.848-17.708 32.429-25.579 68.582-29.38 112.477-3.731 43.093-3.731 96.822-3.731 165.353v148.492c0 2.754 0 4.431 0.016 5.892 1.589 147.21 120.537 266.158 267.746 267.747 1.469 0.018 3.153 0.018 5.927 0.018h0.569c3.155 0.018 6.169 1.299 8.369 3.559l0.038 0.039 16.948 17.611c30.39 31.575 55.687 57.857 78.523 75.913 24.075 19.034 49.663 32.443 80.848 32.443s56.773-13.41 80.848-32.443c22.837-18.056 48.13-44.334 78.521-75.909l16.989-17.653c2.2-2.26 5.214-3.542 8.368-3.559h0.568c2.775 0 4.46 0 5.928-0.018 147.207-1.589 266.158-120.537 267.747-267.747 0.014-1.465 0.014-3.15 0.014-5.924v-148.457c0-68.534 0-122.263-3.732-165.356-3.799-43.895-11.669-80.048-29.379-112.478-24.87-45.544-62.305-82.979-107.847-107.848-32.429-17.708-68.583-25.579-112.48-29.38zM174.815 121.833c20.299-11.084 45.486-17.608 84.727-21.006 39.692-3.437 90.369-3.468 160.942-3.468h77.032c70.574 0 121.25 0.031 160.942 3.468 39.24 3.398 64.431 9.922 84.729 21.006 33.661 18.381 61.331 46.051 79.711 79.713 11.086 20.299 17.611 45.486 21.008 84.727 3.436 39.692 3.467 90.368 3.467 160.943v146.55c0 0.579 0 1.098 0 1.557 0 2.006-0.004 2.998-0.011 3.838-1.176 108.804-89.092 196.725-197.901 197.897-1.031 0.014-2.299 0.014-5.394 0.014h-0.731c-22.078 0.124-43.183 9.102-58.581 24.923l-0.508 0.526-15.015 15.602c-32.577 33.844-54.559 56.575-73.173 71.291-17.812 14.080-28.189 17.222-37.058 17.222s-19.246-3.143-37.058-17.222c-18.614-14.715-40.596-37.446-73.173-71.291l-15.523-16.128c-15.398-15.821-36.504-24.799-58.583-24.923h-0.731c-3.095 0-4.362 0-5.393-0.014-108.806-1.172-196.725-89.092-197.9-197.897-0.011-1.035-0.012-2.299-0.012-5.394v-146.55c0-70.574 0.031-121.251 3.468-160.943 3.398-39.241 9.922-64.429 21.006-84.727 18.381-33.662 46.051-61.332 79.714-79.713z"></path>
</svg>
