<!-- Generated by IcoMoon.io -->
<svg version="1.1" xmlns="http://www.w3.org/2000/svg" width="986" height="1024" viewBox="0 0 986 1024">
<title></title>
<g id="icomoon-ignore">
</g>
<path d="M440.744 32.454h104.521c69.356 0 123.737 0 167.438 3.299 44.502 3.36 81.267 10.313 114.544 25.979 54.707 25.753 99.185 66.847 127.059 117.392 16.955 30.746 24.483 64.714 28.119 105.832 3.569 40.379 3.569 90.62 3.569 154.701v128.787c0 11.984 0 19.276-0.326 25.635-7.087 138.366-126.9 249.066-276.662 255.615-6.883 0.303-15.574 0.303-29.989 0.303l-5.244 0.004c-43.85 0.258-86.562 12.905-122.405 36.242l-2.484 1.635-132.007 87.114c-76.071 50.205-176.035-22.298-141.315-102.492 4.667-10.778-3.926-22.503-16.49-22.503h-30.427c-126.268 0-228.628-94.574-228.628-211.238v-199.103c0-64.081 0-114.322 3.571-154.701 3.636-41.118 11.163-75.086 28.118-105.832 27.874-50.544 72.351-91.638 127.057-117.392 33.277-15.666 70.042-22.62 114.545-25.979 43.704-3.299 98.081-3.299 167.439-3.299zM279.482 105.595c-39.812 3.006-65.485 8.781-86.288 18.574-40.435 19.035-73.309 49.409-93.912 86.768-10.6 19.22-16.85 42.94-20.103 79.724-3.289 37.193-3.319 84.577-3.319 150.565v197.533c0 77.96 68.403 141.161 152.784 141.161h30.427c66.223 0 111.504 61.794 86.91 118.605-6.587 15.215 12.38 28.972 26.813 19.446l134.887-89.011c48.495-31.574 106.281-48.684 165.607-49.033l4.289-0.008c16.268 0 23.004-0.011 27.842-0.224 110.695-4.839 199.251-86.66 204.492-188.933 0.228-4.483 0.239-9.996 0.239-23.459v-126.080c0-65.989-0.030-113.372-3.319-150.565-3.254-36.783-9.503-60.503-20.103-79.724-20.603-37.359-53.478-67.732-93.915-86.768-20.8-9.793-46.473-15.568-86.285-18.574-40.258-3.039-91.54-3.066-162.963-3.066h-101.123c-71.422 0-122.706 0.027-162.962 3.066z"></path>
<path d="M341.316 441.225c0 25.798-22.638 46.716-50.563 46.716s-50.563-20.918-50.563-46.716c0-25.802 22.638-46.716 50.563-46.716s50.563 20.914 50.563 46.716z"></path>
<path d="M543.567 441.225c0 25.798-22.636 46.716-50.562 46.716s-50.562-20.918-50.562-46.716c0-25.802 22.636-46.716 50.562-46.716s50.562 20.914 50.562 46.716z"></path>
<path d="M745.821 441.225c0 25.798-22.64 46.716-50.565 46.716-27.922 0-50.562-20.918-50.562-46.716 0-25.802 22.64-46.716 50.562-46.716 27.926 0 50.565 20.914 50.565 46.716z"></path>
</svg>
