<!-- Generated by IcoMoon.io -->
<svg version="1.1" xmlns="http://www.w3.org/2000/svg" width="1024" height="1024" viewBox="0 0 1024 1024">
<title></title>
<g id="icomoon-ignore">
</g>
<path fill="#000" d="M741.395 14.934c-36.222-2.797-80.939-2.797-137.838-2.796h-183.111c-56.9 0-101.615 0-137.838 2.796-36.965 2.855-67.734 8.763-96.262 21.982-47.114 21.831-86.85 56.911-114.357 100.953-16.656 26.669-26.336 56.468-33.752 92.792-7.269 35.597-12.815 79.967-19.872 136.426l-0.386 3.092c-8.857 70.856-15.784 126.262-17.526 170.882-1.77 45.318 1.575 83.049 15.558 117.64 22.869 56.564 64.398 103.611 117.692 133.317 32.587 18.168 69.612 26.167 114.799 30.030 44.492 3.805 100.33 3.805 171.736 3.805h56.892v85.277c-29.033 2.031-57.933 6.598-86.361 13.705l-73.218 18.305c-18.685 4.672-30.045 23.604-25.374 42.292 4.671 18.683 23.605 30.044 42.291 25.375l73.218-18.305c34.246-8.561 69.283-12.845 104.316-12.845 35.038 0 70.072 4.284 104.316 12.845l73.218 18.305c18.687 4.669 37.618-6.692 42.292-25.375 4.672-18.687-6.689-37.618-25.375-42.292l-73.218-18.305c-28.429-7.106-57.328-11.674-86.357-13.705v-85.277h56.889c71.407 0 127.244 0 171.738-3.805 45.186-3.863 82.21-11.862 114.8-30.030 53.292-29.706 94.82-76.752 117.69-133.317 13.985-34.591 17.329-72.321 15.558-117.64-1.742-44.617-8.669-100.025-17.524-170.878l-0.388-3.099c-7.056-56.459-12.603-100.828-19.871-136.423-7.416-36.324-17.096-66.123-33.752-92.792-27.507-44.042-67.246-79.121-114.356-100.953-28.528-13.22-59.301-19.129-96.263-21.982zM769.56 752.559c-41.171 3.52-94.032 3.55-167.459 3.55h-180.202c-73.424 0-126.284-0.029-167.457-3.55-40.82-3.492-66.591-10.202-86.782-21.458-39.391-21.959-70.087-56.731-86.99-98.539-8.664-21.43-12.127-47.835-10.527-88.772 1.613-41.29 8.14-93.747 17.247-166.605 7.277-58.215 12.514-99.916 19.181-132.567 6.58-32.224 14.081-53 24.573-69.799 20.332-32.552 49.702-58.48 84.525-74.618 17.971-8.327 39.517-13.193 72.307-15.726 33.225-2.566 75.256-2.59 133.922-2.59h180.202c58.671 0 100.699 0.024 133.922 2.59 32.791 2.532 54.34 7.398 72.311 15.726 34.822 16.137 64.192 42.064 84.525 74.618 10.49 16.799 17.992 37.575 24.573 69.799 6.666 32.65 11.902 74.352 19.18 132.567 9.108 72.858 15.634 125.315 17.247 166.605 1.599 40.938-1.865 67.343-10.526 88.772-16.905 41.808-47.601 76.58-86.99 98.539-20.192 11.257-45.963 17.967-86.782 21.458z"></path>
</svg>
