<!-- Generated by IcoMoon.io -->
<svg version="1.1" xmlns="http://www.w3.org/2000/svg" width="1024" height="1024" viewBox="0 0 1024 1024">
<title></title>
<g id="icomoon-ignore">
</g>
<path d="M465.169 0.019h85.061c169.785 0 301.15 148.808 280.092 317.281l-3.229 25.823c-6.244 49.956 11.916 99.862 48.806 134.121l2.195 2.038c80.581 74.834 96.221 196.548 37.174 289.322-38.589 60.636-103.29 99.206-174.254 104.819l-9.549 16.374c-50.589 86.721-129.409 134.182-212.178 134.182s-161.589-47.461-212.178-134.182l-9.403-16.124c-84.48-5.256-160.157-55.575-197.426-132.406l-5.163-10.643c-42.29-87.186-22.505-191.775 48.706-257.488 34.366-31.715 51.315-78.064 45.515-124.464l-3.964-31.708c-21.037-168.297 110.189-316.947 279.793-316.947zM318.779 799.207c0.45-0.007 0.899-0.007 1.349 0h398.315c0.45-0.007 0.903-0.007 1.352 0h3.229c52.293 0 100.96-26.714 129.034-70.829 39.635-62.274 29.138-143.966-24.95-194.196l-2.192-2.038c-54.548-50.656-81.401-124.452-72.167-198.317l3.225-25.821c15.468-123.756-81.027-233.065-205.745-233.065h-85.061c-124.539 0-220.896 109.153-205.447 232.729l3.964 31.712c8.799 70.391-16.914 140.704-69.049 188.815-46.94 43.313-59.981 112.258-32.106 169.725l5.163 10.643c26.892 55.437 83.092 90.639 144.707 90.639h6.38zM519.286 949.055c46.010 0 95.097-23.092 133.028-74.924h-266.055c37.927 51.832 87.017 74.924 133.028 74.924z"></path>
</svg>
