<!-- Generated by IcoMoon.io -->
<svg version="1.1" xmlns="http://www.w3.org/2000/svg" width="805" height="1024" viewBox="0 0 805 1024">
<title></title>
<g id="icomoon-ignore">
</g>
<path fill="#000" d="M402.496 0.010c-131.034 0-237.261 106.225-237.261 237.262 0 131.034 106.225 237.263 237.261 237.263s237.264-106.228 237.264-237.263c0-131.036-106.228-237.262-237.264-237.262zM240.16 237.272c0-89.656 72.68-162.337 162.336-162.337 89.658 0 162.34 72.68 162.34 162.337s-72.68 162.339-162.34 162.339c-89.655 0-162.336-72.682-162.336-162.339z"></path>
<path fill="#000" d="M252.648 549.46c-131.036 0-237.262 106.224-237.262 237.261s106.225 237.261 237.262 237.261h299.697c131.036 0 237.264-106.224 237.264-237.261s-106.228-237.261-237.264-237.261h-299.697zM90.312 786.72c0-89.655 72.68-162.336 162.337-162.336h299.697c89.658 0 162.34 72.68 162.34 162.336s-72.68 162.336-162.34 162.336h-299.697c-89.656 0-162.337-72.68-162.337-162.336z"></path>
</svg>
