<!-- Generated by IcoMoon.io -->
<svg version="1.1" xmlns="http://www.w3.org/2000/svg" width="1252" height="1024" viewBox="0 0 1252 1024">
<title></title>
<g id="icomoon-ignore">
</g>
<path fill="#000" d="M625.995 643.020c-24.119 0-43.674 19.554-43.674 43.674s19.554 43.674 43.674 43.674v-87.346zM844.361 512c0-24.12-19.554-43.674-43.674-43.674s-43.674 19.554-43.674 43.674h87.346zM114.766 402.84v0zM114.753 621.142v0zM264.262 796.912l32.782-28.859-1.107-1.258-1.2-1.165-30.474 31.282zM981.262 220.846l-30.199 31.546 1.241 1.187 1.328 1.087 27.631-33.819zM63.305 511.999v0zM1137.221 621.16v0zM1137.221 402.836v0zM1114.861 301.83c-15.263-18.676-42.777-21.443-61.451-6.179s-21.44 42.777-6.178 61.453l67.63-55.274zM389.433 845.791c-19.591-14.074-46.878-9.596-60.949 9.992s-9.597 46.876 9.993 60.951l50.955-70.943zM1188.686 511.999v0zM16.403 943.741c-18.835 15.070-21.888 42.555-6.82 61.387 15.067 18.838 42.551 21.889 61.386 6.824l-54.565-68.212zM1235.585 80.256c18.838-15.068 21.889-42.551 6.824-61.386-15.070-18.835-42.555-21.888-61.387-6.82l54.562 68.206zM985.554 224.352v0zM266.573 799.539v0zM625.995 293.634c-120.6 0-218.366 97.765-218.366 218.366h87.346c0-72.36 58.66-131.020 131.020-131.020v-87.346zM407.628 512c0 51.29 17.737 98.555 47.38 135.829l68.365-54.364c-17.794-22.373-28.397-50.622-28.397-81.466h-87.346zM796.46 375.513c-39.947-49.84-101.479-81.879-170.466-81.879v87.346c41.361 0 78.228 19.114 102.306 49.16l68.159-54.628zM625.995 730.366c120.603 0 218.366-97.764 218.366-218.366h-87.346c0 72.358-58.662 131.020-131.020 131.020v87.346zM625.995 2.479c-124.67 0-237.393 61.666-328.904 136.593-92.011 75.335-167.247 167.876-217.803 238.298l70.955 50.939c48.289-67.265 118.416-153.069 202.183-221.654 84.266-68.995 177.734-116.83 273.569-116.83v-87.346zM79.275 646.612c38.54 53.683 91.208 119.915 154.513 181.587l60.948-62.569c-58.538-57.025-107.903-118.972-144.505-169.959l-70.956 50.94zM1011.466 189.3c-100.879-96.586-234.607-186.82-385.471-186.82v87.346c116.625 0 229.325 70.903 325.069 162.566l60.403-63.092zM79.288 377.37c-32.281 44.967-59.657 80.555-59.657 134.628l87.347 0.001c0-20.877 6.933-33.078 43.265-83.689l-70.955-50.939zM150.231 595.672c-36.324-50.598-43.254-62.795-43.253-83.673l-87.347-0.001c0 54.072 27.37 89.654 59.645 134.614l70.955-50.94zM625.995 1021.521c124.672 0 237.396-61.666 328.906-136.592 92.011-75.339 167.245-167.874 217.802-238.298l-70.954-50.94c-48.291 67.262-118.418 153.072-202.184 221.656-84.266 68.992-177.732 116.829-273.569 116.829v87.346zM1172.696 377.366c-16.747-23.334-36.12-48.972-57.835-75.536l-67.63 55.274c20.41 24.974 38.677 49.144 54.51 71.201l70.954-50.939zM338.478 916.734c82.952 59.582 180.814 104.787 287.517 104.787v-87.346c-81.803 0-161.988-34.823-236.561-88.383l-50.955 70.943zM1172.702 646.63c32.283-44.966 59.658-80.557 59.658-134.631l-87.346 0.001c0 20.877-6.935 33.078-43.265 83.69l70.954 50.94zM1101.741 428.305c36.336 50.615 43.271 62.817 43.271 83.695l87.346-0.001c0-54.074-27.38-89.663-59.663-134.634l-70.954 50.939zM1012.84 258.455l222.745-178.199-54.562-68.206-222.751 178.199 54.569 68.206zM953.631 254.665l4.292 3.507 55.267-67.641-4.292-3.506-55.267 67.64zM70.967 1011.953l222.888-178.315-54.565-68.206-222.888 178.308 54.565 68.212zM293.855 833.639l718.985-575.184-54.569-68.206-718.981 575.184 54.565 68.206zM231.482 825.771l2.31 2.627 65.562-57.718-2.31-2.627-65.562 57.718z"></path>
</svg>
