<!-- Generated by IcoMoon.io -->
<svg version="1.1" xmlns="http://www.w3.org/2000/svg" width="975" height="1024" viewBox="0 0 975 1024">
<title></title>
<g id="icomoon-ignore">
</g>
<path d="M526.94 421.432c-0.736-0.566-1.456-1.112-2.162-1.641v330.347c0 19.725-16.688 35.717-37.272 35.717s-37.272-15.993-37.272-35.717v-330.347c-0.706 0.528-1.427 1.074-2.163 1.64-16.034 12.34-35.094 30.692-63.411 58.073l-69.469 67.17c-14.491 14.015-38.091 14.114-52.711 0.228-14.621-13.89-14.726-36.507-0.235-50.516l70.984-68.636c26.408-25.535 48.433-46.834 68.163-62.019 20.695-15.928 42.444-28.042 68.943-31.278 11.4-1.393 22.94-1.393 34.34 0 26.498 3.237 48.246 15.352 68.944 31.278 19.729 15.186 41.756 36.482 68.159 62.018l70.987 68.637c14.492 14.010 14.388 36.627-0.233 50.516-14.621 13.885-38.222 13.786-52.714-0.228l-69.466-67.17c-28.318-27.38-47.381-45.733-63.413-58.073z"></path>
<path d="M854.258 52.326c-40.076-27.901-87.004-40.394-144.93-46.408-56.759-5.894-128.303-5.893-219.576-5.893h-2.797c-57.651 0-107.216 0-149.816 1.398-93.105 3.056-161.536 12.713-216.384 50.902-24.259 16.891-45.594 37.336-63.219 60.585-39.85 52.563-49.925 118.144-53.115 207.368-1.459 40.825-1.459 88.327-1.459 143.577v97.932c0 87.466-0.001 156.028 6.149 210.427 6.276 55.506 19.312 100.487 48.426 138.888 17.626 23.248 38.959 43.693 63.219 60.586 40.072 27.9 87.004 40.394 144.927 46.407 56.759 5.894 128.302 5.894 219.569 5.894h4.505c91.268 0 162.812 0 219.571-5.894 57.927-6.013 104.856-18.507 144.93-46.407 24.257-16.892 45.592-37.337 63.214-60.586 29.118-38.4 42.153-83.382 48.429-138.888 6.148-54.398 6.148-122.955 6.148-210.422v-99.568c0-87.464 0-156.029-6.148-210.425-6.277-55.51-19.312-100.487-48.429-138.889-17.623-23.248-38.957-43.693-63.214-60.585zM487.505 71.466c94.006 0 161.514 0.049 213.796 5.477 51.58 5.356 83.893 15.602 109.139 33.18 17.93 12.484 33.699 27.596 46.725 44.779 18.343 24.194 29.033 55.162 34.623 104.594 5.666 50.101 5.716 114.798 5.716 204.885v95.251c0 90.091-0.050 154.786-5.716 204.885-5.591 49.433-16.28 80.4-34.623 104.597-13.025 17.18-28.795 32.292-46.725 44.776-25.246 17.578-57.559 27.825-109.139 33.182-52.282 5.427-119.79 5.477-213.796 5.477s-161.515-0.050-213.794-5.477c-51.58-5.358-83.894-15.605-109.14-33.182-17.93-12.484-33.699-27.596-46.726-44.776-18.343-24.197-29.034-55.164-34.622-104.597-5.664-50.099-5.716-114.795-5.716-204.885v-95.251c0-40.403 0.002-75.81 0.538-107.246 23.589-0.208 40.953-0.911 56.589-3.285 122.273-18.559 218.17-110.461 237.537-227.639 2.477-14.984 3.21-31.625 3.427-54.231 32.802-0.513 69.748-0.515 111.908-0.515zM122.971 283.29c-10.19 1.547-21.99 2.137-42.113 2.359 4.66-64.788 15.342-102.199 36.987-130.749 13.027-17.183 28.796-32.295 46.726-44.779 29.791-20.742 68.829-30.98 136.434-35.445-0.232 19.286-0.848 30.594-2.462 40.359-14.314 86.61-85.195 154.537-175.571 168.254z"></path>
</svg>
