<!-- Generated by IcoMoon.io -->
<svg version="1.1" xmlns="http://www.w3.org/2000/svg" width="991" height="1024" viewBox="0 0 991 1024">
<title></title>
<g id="icomoon-ignore">
</g>
<path fill="#000" d="M221.003 60.808c14.72-11.776 17.106-33.255 5.331-47.976s-33.255-17.106-47.976-5.331l-113.776 91.020c-14.72 11.776-17.106 33.255-5.331 47.976s33.255 17.106 47.976 5.331l113.776-91.020z"></path>
<path fill="#000" d="M812.635 7.502c-14.722-11.776-36.201-9.39-47.977 5.331s-9.39 36.2 5.332 47.976l113.774 91.020c14.722 11.776 36.201 9.39 47.977-5.331s9.39-36.199-5.332-47.976l-113.774-91.020z"></path>
<path fill="#000" d="M529.628 352.727c0-18.852-15.282-34.132-34.132-34.132-18.848 0-34.132 15.282-34.132 34.132v191.409c0 14.507-5.543 28.467-15.492 39.024l-66.227 70.245c-12.933 13.714-12.298 35.317 1.42 48.249 13.714 12.93 35.317 12.294 48.249-1.423l66.227-70.241c21.896-23.224 34.088-53.937 34.088-85.854v-191.409z"></path>
<path fill="#000" d="M495.495 45.532c-270.196 0-489.233 219.037-489.233 489.235s219.037 489.233 489.233 489.233c270.198 0 489.237-219.036 489.237-489.233s-219.039-489.235-489.237-489.235zM74.528 534.767c0-232.495 188.475-420.969 420.968-420.969s420.971 188.474 420.971 420.969c0 232.494-188.477 420.968-420.971 420.968s-420.968-188.474-420.968-420.968z"></path>
</svg>
